<?xml version="1.0" ?><!DOCTYPE svg  PUBLIC '-//W3C//DTD SVG 1.1//EN'  'http://www.w3.org/Graphics/SVG/1.1/DTD/svg11.dtd'><svg width="67733.32px" height="67733.32px" viewBox="0 0 67733.32 67733.32" style="shape-rendering:geometricPrecision; text-rendering:geometricPrecision; image-rendering:optimizeQuality; fill-rule:evenodd; clip-rule:evenodd" version="1.1" xml:space="preserve" xmlns="http://www.w3.org/2000/svg" xmlns:xlink="http://www.w3.org/1999/xlink" xmlns:xodm="http://www.corel.com/coreldraw/odm/2003"><defs><style type="text/css">
   <![CDATA[
    .fil0 {fill:none}
    .fil4 {fill:#484B60;fill-rule:nonzero}
    .fil7 {fill:#AAD1DF;fill-rule:nonzero}
    .fil5 {fill:#DB9A3D;fill-rule:nonzero}
    .fil1 {fill:#DDCAC6;fill-rule:nonzero}
    .fil6 {fill:#DF8C9A;fill-rule:nonzero}
    .fil3 {fill:#FFC15B;fill-rule:nonzero}
    .fil2 {fill:white;fill-rule:nonzero}
   ]]>
  </style></defs><g id="Layer_x0020_1"><rect class="fil0" height="67733.32" width="67733.32" x="-0" y="-0"/><g id="_2731011271504"><path class="fil1" d="M61676.02 41828.06c0,-495.78 -93.24,-970.18 -263.14,-1406.53l0 -2228.1c236.96,-510.28 369.29,-1078.77 369.29,-1677.4l0 -1274.12c0,-598.62 -132.33,-1167.12 -369.29,-1677.4l0 -10733.6c0,-2833.79 -2305.52,-5139.4 -5139.4,-5139.4l-34644.66 0c-2597.2,0 -4840.65,1850.8 -5334.26,4400.72l-1263 6525.77 -2941.82 672.38c-3710.82,848.31 -6302.37,4099.14 -6302.37,7905.46l0 3162.21c-199.2,471.29 -309.3,989.11 -309.3,1531.89l0 1208.84c0,2178.37 1772.25,3950.61 3950.62,3950.61l3646.3 0c943.53,0 1810.77,-332.37 2490.87,-886.26l825.42 0c752.06,1850.14 2232.62,3352.93 4185.23,4034.06 734.72,256.27 1501.56,386.15 2279.23,386.15 2867.51,0 5473.47,-1750.02 6681.46,-4420.21l13278.72 0c752.05,1850.14 2232.62,3352.93 4185.13,4034.06 734.72,256.27 1501.56,386.15 2279.24,386.15 2536.73,0 4868.61,-1369.42 6209.31,-3533.95l2297.7 0c2144.27,0 3888.73,-1744.46 3888.73,-3888.73l0 -1332.6z"/><g><path class="fil2" d="M58258.77 34358.76l-27.69 0 0 -12069.41c0,-819.86 -664.65,-1484.51 -1484.52,-1484.51l-34644.75 0c-851.8,0 -1584.07,604.09 -1745.97,1440.53l-1715.46 8863.4 -5263.15 1203.01c-2025.51,463 -3461.99,2264.82 -3461.99,4342.51l0 4398.36 -13.47 0c-163.41,0 -295.83,132.42 -295.83,295.83l0 1208.75c0,163.41 132.42,295.83 295.83,295.83l3646.31 0c163.31,0 295.83,-132.42 295.83,-295.83l0 -590.53 6211.48 0c-385.96,1825.84 524.23,3654.22 2197.86,4238.06 1829.61,638.09 3873.67,-452.55 4565.63,-2436.24 210.32,-602.87 269.46,-1218.45 201.37,-1801.82l19459.68 0c-385.87,1825.84 524.23,3654.22 2197.96,4238.06 1829.51,638.09 3873.67,-452.55 4565.54,-2436.24 210.4,-602.87 269.55,-1218.45 201.55,-1801.82l2210.1 0 0 652.5c0,129.12 104.74,233.86 233.96,233.86l2371.34 0c129.13,0 233.86,-104.74 233.86,-233.86l0 -1332.69c0,-129.13 -104.73,-233.86 -233.86,-233.86l-29.29 0 0 -4736.48 27.69 0c188.65,0 341.6,-152.95 341.6,-341.7l0 -1274.11c0,-188.65 -152.95,-341.6 -341.6,-341.6z"/><path class="fil2" d="M56746.56 20804.85c819.87,0 1484.52,664.65 1484.52,1484.51l0 12069.41 27.69 0c188.65,0 341.6,152.95 341.6,341.6l0 1274.11c0,188.75 -152.95,341.7 -341.6,341.7l-27.69 0 0 4736.48 29.29 0c129.13,0 233.86,104.73 233.86,233.86l0 1332.69c0,129.12 -104.73,233.86 -233.86,233.86l-2371.34 0c-129.22,0 -233.96,-104.74 -233.96,-233.86l0 -652.5 -2210.1 0c68,583.37 8.85,1198.95 -201.55,1801.82 -557.95,1599.61 -1995.09,2618.48 -3490.06,2618.48 -358.93,0 -721.26,-58.67 -1075.48,-182.24 -1673.73,-583.84 -2583.83,-2412.22 -2197.96,-4238.06l-19459.68 0c68.09,583.37 8.95,1198.95 -201.37,1801.82 -557.94,1599.61 -1995.08,2618.48 -3490.15,2618.48 -358.93,0 -721.25,-58.67 -1075.48,-182.24 -1673.63,-583.84 -2583.82,-2412.22 -2197.86,-4238.06l-6211.48 0 0 590.53c0,163.41 -132.52,295.83 -295.83,295.83l-3646.31 0c-163.41,0 -295.83,-132.42 -295.83,-295.83l0 -1208.75c0,-163.41 132.42,-295.83 295.83,-295.83l13.47 0 0 -4398.36c0,-2077.69 1436.48,-3879.51 3461.99,-4342.51l5263.15 -1203.01 1715.46 -8863.4c161.9,-836.44 894.17,-1440.53 1745.97,-1440.53l34644.75 0zm0 -3654.88l0 0 -34644.75 0c-2597.2,0 -4840.56,1850.89 -5334.17,4400.71l-1263 6525.78 -2941.81 672.37c-3710.83,848.31 -6302.37,4099.14 -6302.37,7905.47l0 3162.3c-199.2,471.29 -309.3,989.02 -309.3,1531.89l0 1208.75c0,2178.36 1772.15,3950.61 3950.61,3950.61l3646.31 0c943.43,0 1810.77,-332.37 2490.77,-886.26l825.52 0c751.96,1850.13 2232.61,3353.02 4185.13,4034.06 734.72,256.27 1501.56,386.15 2279.23,386.15 2867.6,0 5473.47,-1750.02 6681.56,-4420.21l13278.71 0c751.96,1850.13 2232.52,3353.02 4185.13,4034.06 734.73,256.27 1501.57,386.15 2279.24,386.15 2536.64,0 4868.52,-1369.43 6209.22,-3533.95l2297.79 0c2144.18,0 3888.74,-1744.46 3888.74,-3888.64l0 -1332.69c0,-495.69 -93.24,-970.09 -263.15,-1406.54l0 -2228c236.96,-510.38 369.29,-1078.77 369.29,-1677.5l0 -1274.11c0,-598.63 -132.33,-1167.12 -369.29,-1677.4l0 -10733.61c0,-2833.78 -2305.51,-5139.39 -5139.4,-5139.39z"/></g><g><path class="fil3" d="M9915.24 41966.7l0 -5312.41c0,-2077.78 1436.48,-3879.51 3461.89,-4342.51l5263.25 -1203.01 1715.46 -8863.4c161.9,-836.35 894.17,-1440.53 1746.06,-1440.53l34644.66 0c819.87,0 1484.52,664.65 1484.52,1484.61l0 19677.25 -48315.84 0z"/><path class="fil4" d="M13548.08 42853.06l-3646.31 0c-163.41,0 -295.83,-132.42 -295.83,-295.74l0 -1208.84c0,-163.41 132.42,-295.83 295.83,-295.83l3646.31 0c163.41,0 295.73,132.42 295.73,295.83l0 1208.84c0,163.32 -132.32,295.74 -295.73,295.74z"/><path class="fil4" d="M58260.37 42853.06l-2371.44 0c-129.12,0 -233.76,-104.74 -233.76,-233.86l0 -1332.69c0,-129.13 104.64,-233.86 233.76,-233.86l2371.44 0c129.13,0 233.86,104.73 233.86,233.86l0 1332.69c0,129.12 -104.73,233.86 -233.86,233.86z"/><g><path class="fil4" d="M26818.88 43768.52c-691.96,1983.69 -2736.02,3074.42 -4565.63,2436.24 -1829.6,-638.19 -2751.84,-2763.62 -2059.88,-4747.31 691.87,-1983.6 2736.03,-3074.33 4565.54,-2436.15 1829.6,638.19 2751.94,2763.62 2059.97,4747.22z"/><path class="fil2" d="M24653.89 43013.36c-239.69,687.25 -947.95,1065.21 -1581.81,844.07 -633.94,-221.14 -953.51,-957.47 -713.72,-1644.82 239.7,-687.26 947.96,-1065.12 1581.81,-844.07 633.95,221.14 953.42,957.56 713.72,1644.82z"/></g><path class="fil5" d="M27590.15 41320.69c-330.96,-1415.01 -1300.48,-2529.19 -2593.43,-2979.96 -1048.73,-366.27 -2189.57,-266.63 -3212.31,279.07 -1026.32,547.77 -1811.24,1478.96 -2209.64,2621.78l-235.55 -81.85c419.49,-1202.43 1245.95,-2182.32 2327.74,-2759.57 1084.71,-578.85 2296.57,-683.01 3411.51,-294.98 1374.13,479.3 2403.94,1659.98 2754.39,3159.1l-242.71 56.41z"/><path class="fil5" d="M54008.84 41320.69c-330.96,-1415.01 -1300.48,-2529.19 -2593.43,-2979.96 -2168.1,-757.61 -4600.1,545.14 -5421.94,2900.85l-235.56 -81.85c867.34,-2485.4 3442.97,-3854.64 5739.25,-3054.55 1374.14,479.3 2403.94,1659.98 2754.39,3159.1l-242.71 56.41z"/><g><path class="fil4" d="M53243.51 43768.52c-691.96,1983.69 -2736.03,3074.42 -4565.63,2436.24 -1829.61,-638.19 -2751.85,-2763.62 -2059.98,-4747.31 691.97,-1983.6 2736.03,-3074.33 4565.63,-2436.15 1829.61,638.19 2751.85,2763.62 2059.98,4747.22z"/><path class="fil2" d="M51078.52 43013.36c-239.79,687.25 -947.96,1065.21 -1581.9,844.07 -633.95,-221.14 -953.42,-957.47 -713.73,-1644.82 239.79,-687.26 947.96,-1065.12 1581.91,-844.07 633.85,221.14 953.41,957.56 713.72,1644.82z"/></g><path class="fil6" d="M11036.96 36680.85l-64.42 0c-191.29,0 -346.31,-155.03 -346.31,-346.31l0 -747.73c0,-191.19 155.02,-346.31 346.31,-346.31l64.42 0c191.29,0 346.31,155.12 346.31,346.31l0 747.73c0,191.28 -155.02,346.31 -346.31,346.31z"/><g><polygon class="fil4" points="11724.88,37770.36 9915.24,37770.36 9915.24,37521.15 11724.88,37521.15 "/><polygon class="fil4" points="11724.88,38462.8 9915.24,38462.8 9915.24,38213.59 11724.88,38213.59 "/><polygon class="fil4" points="11724.88,39155.23 9915.24,39155.23 9915.24,38906.02 11724.88,38906.02 "/><polygon class="fil4" points="11724.88,39847.67 9915.24,39847.67 9915.24,39598.46 11724.88,39598.46 "/></g><polygon class="fil4" points="57074.79,33047.74 20191.58,33047.74 20191.58,32383.18 57074.79,32383.18 "/><polygon class="fil4" points="57074.79,36853.67 20191.58,36853.67 20191.58,36604.56 57074.79,36604.56 "/><g><path class="fil2" d="M20616.44 23463.17l1868.98 0c274.45,0 497,222.56 497,497.01l0 6124.93c0,274.45 -222.55,497 -497,497l-3246.32 0 1377.34 -7118.94z"/><path class="fil5" d="M22712.4 31232.92l-3473.11 0 0 -249.21 3473.11 0c360.81,0 654.48,-293.57 654.48,-654.39l0 -6528.69c0,-360.82 -293.67,-654.48 -654.48,-654.48l-1991.32 0 0 -249.21 1991.32 0c498.42,0 903.69,405.27 903.69,903.69l0 6528.69c0,498.33 -405.27,903.6 -903.69,903.6z"/></g><g><g><path class="fil2" d="M34142 25211.31l0 -1138.4c0,-336.8 -273.03,-609.74 -609.74,-609.74l-7352.14 0c-336.7,0 -609.74,272.94 -609.74,609.74l0 1138.4 8571.62 0z"/><path class="fil2" d="M25570.39 25529.84l0 4442.53c0,336.7 273.04,609.74 609.74,609.74l7352.14 0c336.71,0 609.74,-273.04 609.74,-609.74l0 -4442.53 -8571.62 0z"/></g><path class="fil5" d="M33785.25 31232.92l-7785.95 0c-565.19,0 -1025,-459.71 -1025,-1025l0 -6285.98c0,-565.2 459.81,-1025 1025,-1025l7785.95 0c565.29,0 1024.99,459.8 1024.99,1025l0 6285.98c0,565.29 -459.7,1025 -1024.99,1025zm-7785.95 -8086.77l0 0c-427.69,0 -775.79,348.2 -775.79,775.79l0 6285.98c0,427.69 348.1,775.79 775.79,775.79l7785.95 0c427.68,0 775.88,-348.1 775.88,-775.79l0 -6285.98c0,-427.59 -348.2,-775.79 -775.88,-775.79l-7785.95 0z"/></g><g><g><path class="fil2" d="M45336.44 25211.31l0 -1138.4c0,-336.8 -273.03,-609.74 -609.74,-609.74l-7352.14 0c-336.7,0 -609.65,272.94 -609.65,609.74l0 1138.4 8571.53 0z"/><path class="fil2" d="M36764.91 25529.84l0 4442.53c0,336.7 272.95,609.74 609.65,609.74l7352.14 0c336.71,0 609.74,-273.04 609.74,-609.74l0 -4442.53 -8571.53 0z"/></g><path class="fil5" d="M44979.77 31232.92l-7785.94 0c-565.2,0 -1025,-459.71 -1025,-1025l0 -6285.98c0,-565.2 459.8,-1025 1025,-1025l7785.94 0c565.29,0 1025.09,459.8 1025.09,1025l0 6285.98c0,565.29 -459.8,1025 -1025.09,1025zm-7785.94 -8086.77l0 0c-427.69,0 -775.79,348.2 -775.79,775.79l0 6285.98c0,427.69 348.1,775.79 775.79,775.79l7785.94 0c427.69,0 775.88,-348.1 775.88,-775.79l0 -6285.98c0,-427.59 -348.19,-775.79 -775.88,-775.79l-7785.94 0z"/></g><g><g><path class="fil2" d="M56530.88 25211.31l0 -1138.4c0,-336.8 -273.03,-609.74 -609.74,-609.74l-7352.14 0c-336.7,0 -609.74,272.94 -609.74,609.74l0 1138.4 8571.62 0z"/><path class="fil2" d="M47959.26 25529.84l0 4442.53c0,336.7 273.04,609.74 609.74,609.74l7352.14 0c336.71,0 609.74,-273.04 609.74,-609.74l0 -4442.53 -8571.62 0z"/></g><path class="fil5" d="M56174.02 31232.92l-7785.66 0c-565.19,0 -1025,-459.71 -1025,-1025l0 -6285.98c0,-565.2 459.81,-1025 1025,-1025l7785.66 0c565.29,0 1025.38,459.8 1025.38,1025l0 6285.98c0,565.29 -460.09,1025 -1025.38,1025zm-7785.66 -8086.77l0 0c-427.59,0 -775.79,348.2 -775.79,775.79l0 6285.98c0,427.69 348.2,775.79 775.79,775.79l7785.66 0c427.97,0 776.17,-348.1 776.17,-775.79l0 -6285.98c0,-427.59 -348.2,-775.79 -776.17,-775.79l-7785.66 0z"/></g><path class="fil7" d="M58258.77 36316.17l-184.6 0c-188.74,0 -341.69,-152.95 -341.69,-341.7l0 -1274.02c0,-188.74 152.95,-341.69 341.69,-341.69l184.6 0c188.65,0 341.7,152.95 341.7,341.69l0 1274.02c0,188.75 -153.05,341.7 -341.7,341.7z"/></g></g></g></svg>